<svg width="1011" height="1058" viewBox="0 0 1011 1058" fill="none" xmlns="http://www.w3.org/2000/svg">
<path fill-rule="evenodd" clip-rule="evenodd" d="M836.953 415.756C838.963 421.372 840.844 427.025 842.594 432.71C843.773 433.81 844.948 434.904 846.119 435.994C843.252 429.23 840.196 422.481 836.953 415.756ZM854.562 457.446C852.324 455.383 850.069 453.299 847.797 451.196C855.929 483.014 860.08 515.691 860.276 548.5C862.05 549.788 863.811 551.057 865.558 552.308C869.562 555.174 873.491 557.938 877.342 560.6C876.837 553.917 876.133 547.192 875.23 540.435C871.575 513.085 864.661 485.221 854.562 457.446ZM887.817 567.716C887.317 558.249 886.424 548.706 885.142 539.11C882.157 516.775 877.063 494.142 869.905 471.515C873.61 474.894 877.26 478.21 880.854 481.46C886.713 495.172 891.725 508.684 895.862 521.908C902.314 542.529 906.617 562.346 908.718 581.062C902.089 577.035 895.112 572.58 887.817 567.716ZM878.058 573.207C872.26 569.282 866.291 565.125 860.166 560.746C859.409 592.337 854.992 623.966 846.94 654.983C854.587 657.291 861.895 659.107 868.83 660.417C876.165 632.896 879.211 603.546 878.058 573.207ZM878.76 661.977C885.597 635.908 888.722 608.344 888.245 579.976C895.764 584.877 902.958 589.343 909.791 593.348C911.373 619.028 908.555 642.389 901.189 662.599C894.439 663.19 886.957 662.99 878.76 661.977ZM866.058 670.068C859.107 668.718 851.846 666.901 844.311 664.635C837.412 688.823 828.283 712.595 816.937 735.639C824.853 733.739 832.38 731.261 839.477 728.197C850.856 710.185 859.703 690.685 866.058 670.068ZM856.246 719.344C864.412 704.25 870.992 688.308 876.014 671.706C883.329 672.683 890.324 673.087 896.926 672.864C890.952 685.597 882.942 696.863 872.852 706.414C867.746 711.248 862.199 715.556 856.246 719.344ZM851.312 728.035C848.568 729.513 845.754 730.893 842.873 732.178C841.255 734.702 839.588 737.197 837.871 739.663C828.795 752.699 818.336 764.907 806.475 776.135C797.819 784.33 788.643 791.787 779.008 798.517C775.001 801.315 770.915 803.988 766.754 806.535C763.961 810.143 761.103 813.718 758.178 817.261C746.72 831.139 734.255 844.502 720.783 857.255C548.825 1020.04 278.181 1021.6 116.283 860.745C-45.6145 699.89 -37.459 437.529 134.499 274.745C148.021 261.945 162.153 250.141 176.795 239.335C180.463 236.628 184.163 233.983 187.893 231.401C190.651 227.383 193.54 223.441 196.559 219.582C203.701 210.452 211.576 201.781 220.191 193.626C232.099 182.353 244.99 172.474 258.709 163.967C261.239 162.398 263.797 160.875 266.383 159.399C267.8 156.591 269.318 153.853 270.937 151.186C276.208 142.506 282.554 134.59 290.005 127.536C301.305 116.84 314.585 108.656 329.498 102.874C331.249 102.195 333.024 101.549 334.82 100.936C335.13 98.995 335.512 97.1095 335.967 95.2811C338.366 85.629 342.789 77.5688 349.362 71.3468C359.408 61.8371 373.758 57.3002 391.518 57.2765C393.263 57.2742 395.041 57.3155 396.852 57.3999C396.23 55.6518 395.678 53.9626 395.196 52.3338C391.53 39.9522 391.915 31.0636 396.866 26.3774C404.167 19.4657 420.652 22.4024 444.014 33.5363C447.334 35.1188 450.793 36.8668 454.385 38.7757C451.812 35.5136 449.439 32.4372 447.275 29.5553C435.088 13.327 429.515 3.26808 431.96 0.953534C438.727 -5.45275 505.167 49.1293 597.573 135.027C614.002 150.299 631.251 166.56 649.132 183.644C656.29 190.483 663.548 197.454 670.896 204.546C675.02 208.526 679.172 212.544 683.349 216.599C686.232 219.397 689.128 222.212 692.035 225.045C707.4 240.013 723.089 255.447 738.999 271.255C754.83 286.984 770.285 302.492 785.274 317.679C788.12 320.562 790.95 323.435 793.762 326.295C797.837 330.439 801.875 334.558 805.875 338.649C813.001 345.936 820.004 353.134 826.874 360.232C844.023 377.947 860.343 395.035 875.668 411.308C962.173 503.163 1016.98 569.062 1010.21 575.476C1007.75 577.799 997.458 572.106 980.926 559.813C978.056 557.678 974.998 555.345 971.76 552.82C973.657 556.378 975.388 559.801 976.95 563.084C987.829 585.96 990.442 601.983 983.15 608.887C978.179 613.592 968.952 613.733 956.197 609.831C954.578 609.335 952.902 608.775 951.171 608.15C951.215 609.951 951.214 611.718 951.166 613.45C950.691 630.61 945.667 644.369 935.646 653.856C929.043 660.107 920.58 664.209 910.511 666.293C908.659 666.677 906.753 666.992 904.793 667.24C904.097 669.019 903.365 670.775 902.598 672.507C896.283 686.763 887.548 699.388 876.29 710.045C868.8 717.135 860.441 723.121 851.312 728.035ZM912.423 660.716C920.416 658.644 927.028 655.129 932.209 650.225C941.28 641.638 946.044 628.703 946.202 611.625C943.874 610.717 941.477 609.714 939.014 608.62C933.141 606.012 926.811 602.852 920.067 599.17C920.837 621.379 918.376 642.102 912.423 660.716ZM919.363 587.329C927.988 592.236 935.917 596.303 943.073 599.481C943.969 599.879 944.85 600.262 945.718 600.63C945.578 599.128 945.409 597.601 945.21 596.047C942.267 573.081 932.834 545.237 917.498 514.049C914.893 511.777 912.244 509.455 909.551 507.085C905.692 503.688 901.744 500.19 897.709 496.595C900.534 504.109 903.101 511.556 905.406 518.922C912.82 542.619 917.549 565.603 919.363 587.329ZM889.179 475.505C894.377 480.2 899.454 484.755 904.4 489.163C893.343 469.394 880.248 448.64 865.294 427.26C874.327 443.486 882.303 459.611 889.179 475.505ZM884.267 437.308C899.164 459.656 911.968 481.247 922.466 501.672C923.526 503.734 924.563 505.785 925.576 507.824C935.709 516.646 945.125 524.673 953.736 531.829C946.404 520.123 937.752 507.367 927.881 493.716C915.219 476.206 900.598 457.288 884.267 437.308ZM975.668 549.525C978.416 551.661 981.029 553.652 983.5 555.495C991.833 561.708 998.409 566.115 1003.11 568.663C1003.33 568.787 1003.55 568.905 1003.77 569.018C1003.7 568.885 1003.63 568.751 1003.55 568.613C1001.05 564.013 996.669 557.539 990.466 549.31C978.103 532.909 958.97 510.167 934.46 482.674C930.166 477.857 925.71 472.897 921.098 467.803C926.317 474.665 931.283 481.355 935.984 487.857C952.688 510.955 966.129 531.781 975.668 549.525ZM1005.78 573.996C1005.78 573.992 1005.77 573.936 1005.77 573.842C1005.79 573.954 1005.79 574.001 1005.78 573.996ZM1008.6 570.986C1008.7 570.984 1008.75 570.993 1008.75 570.998C1008.75 571.002 1008.7 571.002 1008.6 570.986ZM967.843 556.105C958.513 548.803 947.759 539.975 935.778 529.796C946.051 553.681 952.673 575.613 955.129 594.776C955.555 598.099 955.857 601.354 956.029 604.534C960.536 606.003 964.505 606.938 967.923 607.352C974.423 608.141 977.924 606.949 979.713 605.256C981.453 603.608 982.74 600.366 982.094 594.139C981.456 587.989 979.004 579.903 974.61 569.969C972.694 565.637 970.435 561.009 967.843 556.105ZM540.277 89.5071C535.395 85.1464 530.635 80.9254 526.007 76.8506C498.259 52.4229 475.277 33.3206 458.666 20.9346C450.333 14.7216 443.757 10.3148 439.06 7.76635C438.832 7.64264 438.611 7.52462 438.396 7.4121C438.467 7.5443 438.539 7.67909 438.614 7.81649C441.12 12.4172 445.497 18.8909 451.7 27.12C453.54 29.5608 455.529 32.1421 457.665 34.8586C475.716 44.5292 496.859 58.0631 520.277 74.8243C526.767 79.4689 533.439 84.3671 540.277 89.5071ZM451.115 42.7018C446.107 40.0622 441.376 37.7519 436.943 35.7832C426.799 31.2786 418.481 28.6867 412.093 27.9116C405.593 27.1231 402.092 28.3152 400.303 30.0085C398.563 31.6558 397.275 34.8985 397.921 41.1254C398.262 44.4077 399.119 48.2412 400.512 52.6129C403.825 52.8562 407.214 53.2305 410.673 53.7301C430.334 56.5696 452.767 63.5168 477.143 74.0599C467.074 62.3457 458.341 51.8303 451.115 42.7018ZM499.442 84.4352C490.705 74.5245 482.751 65.3105 475.652 56.8775C487.583 64.2905 500.572 73.018 514.457 82.956C531.918 95.4537 550.738 109.823 570.583 125.825C548.11 111.002 526.358 98.1931 505.736 87.6127C503.627 86.5306 501.529 85.4713 499.442 84.4352ZM493.247 92.5281C461.443 76.8897 432.916 67.0463 409.244 63.6274C407.607 63.391 405.998 63.1858 404.416 63.0116C404.734 63.7616 405.064 64.5229 405.405 65.2954C408.506 72.3064 412.507 80.0909 417.357 88.5723C439.717 90.8458 463.315 95.9857 487.593 103.757C495.129 106.169 502.743 108.838 510.419 111.758C506.934 107.894 503.54 104.11 500.241 100.41C497.86 97.7394 495.528 95.1115 493.247 92.5281ZM531.881 120.509C527.283 115.482 522.819 110.57 518.496 105.782C538.22 116.761 558.871 129.664 580.106 144.316C563.91 135.375 547.792 127.425 531.881 120.509ZM525.95 128.839C511.934 122.816 498.101 117.62 484.544 113.281C463.408 106.515 443.043 101.857 423.757 99.3646C427.698 105.795 432.058 112.562 436.82 119.638C446.605 120.351 456.46 121.45 466.36 122.931C489.28 126.361 512.46 131.839 535.587 139.318C532.315 135.774 529.102 132.28 525.95 128.839ZM555.762 146.355C553.672 144.114 551.603 141.89 549.556 139.685C560.905 145.233 572.338 151.3 583.809 157.872C574.498 153.707 565.142 149.867 555.762 146.355ZM550.064 154.906C521.637 144.425 493.036 137.034 464.88 132.821C457.929 131.781 451.007 130.935 444.123 130.283C446.697 133.965 449.368 137.722 452.135 141.548C453.394 143.289 454.672 145.044 455.969 146.812C489.792 147.784 523.384 152.593 555.994 161.245C553.999 159.117 552.022 157.004 550.064 154.906ZM574.88 166.722C573.893 165.677 572.91 164.635 571.93 163.596C578.136 166.242 584.326 169.035 590.493 171.975C585.321 170.122 580.115 168.371 574.88 166.722ZM589.696 182.336C624.852 219.225 664.426 259.636 706.691 301.628C749.107 343.771 789.946 383.249 827.231 418.32C808.33 365.901 777.778 316.833 735.475 274.802C693.159 232.758 643.298 201.939 589.696 182.336ZM569.427 175.51C607.799 216.087 652.027 261.413 699.643 308.722C747.248 356.021 792.892 399.988 833.785 438.168C843.838 471.628 849.287 506.232 850.157 541.062C791.1 497.115 718.771 434.215 644.541 360.463C570.462 286.861 507.484 215.361 463.626 157.112C499.554 158.804 535.137 164.936 569.427 175.51ZM450.834 156.697C495.219 216.58 560.449 291.01 637.492 367.556C714.513 444.081 789.634 509.105 850.273 553.581C850.06 586.512 845.767 619.547 837.414 651.914C820.864 646.256 802.897 638.472 783.837 628.693C713.894 592.808 630.216 530.565 549.533 450.401C468.847 370.235 406.721 287.612 371.436 218.96C361.877 200.361 354.329 182.868 348.911 166.788C382.559 159.457 416.8 156.093 450.834 156.697ZM443.468 146.628C439.186 140.693 435.121 134.91 431.283 129.291C399.929 127.42 369.499 129.666 340.864 136.133C342.043 142.805 343.722 149.846 345.889 157.221C378.095 150.135 410.845 146.602 443.468 146.628ZM336.132 159.481C334.014 152.212 332.341 145.211 331.131 138.512C309.586 144.187 289.146 152.33 270.197 162.988C266.907 169.719 264.198 176.871 262.064 184.408C286.159 173.915 310.957 165.605 336.132 159.481ZM259.168 196.638C252.613 230.617 256.544 271.283 270.433 315.673C294.986 394.147 350.319 482.797 430.82 562.78C511.317 642.759 601.386 698.577 681.751 724.301C727.275 738.873 769.225 743.671 804.51 738.099C817.264 713.358 827.362 687.717 834.792 661.585C817.47 655.704 798.841 647.63 779.272 637.59C708.194 601.123 623.699 538.187 542.484 457.495C461.272 376.806 398.429 293.353 362.542 223.531C352.655 204.294 344.771 186.01 339.118 169.038C311.881 175.62 285.088 184.821 259.168 196.638ZM248.13 201.855C242.993 236.466 247.677 276.433 260.889 318.66C286.025 398.997 342.375 489.001 423.772 569.874C505.173 650.751 596.563 707.533 678.702 733.825C721.898 747.651 762.939 753.148 798.69 748.992C788.438 767.519 776.663 785.494 763.37 802.739C706.803 837.072 635.96 848.039 561.785 836.94C469.033 823.061 371.444 774.696 291.191 694.959C210.936 615.221 163.485 519.481 151.436 429.326C141.805 357.263 154.787 288.945 191.506 234.982C209.717 222.433 228.654 211.39 248.13 201.855ZM250.394 189.688C251.773 183.568 253.49 177.641 255.551 171.927C244.261 179.388 233.589 187.827 223.628 197.257C218.918 201.716 214.432 206.334 210.171 211.102C223.29 203.247 236.718 196.109 250.394 189.688ZM170.392 250.468C142.035 302.912 132.828 365.582 141.524 430.651C153.896 523.227 202.499 620.936 284.142 702.053C365.787 783.172 465.286 832.612 560.305 846.83C627.108 856.825 691.882 849.419 746.596 823.18C737.448 833.662 727.697 843.825 717.346 853.623C547.228 1014.66 279.672 1016.03 119.807 857.198C-39.9612 698.458 -32.106 439.346 137.937 278.376C148.402 268.469 159.236 259.166 170.392 250.468ZM788.094 785.494C793.235 781.395 798.219 777.065 803.038 772.504C812.893 763.174 821.765 753.147 829.662 742.511C823.672 744.393 817.466 745.928 811.065 747.125C804.136 760.19 796.478 773 788.094 785.494ZM279.938 146.644C295.734 139.058 312.37 133.042 329.652 128.563C328.843 121.529 328.603 114.808 328.985 108.473C315.563 113.978 303.628 121.525 293.443 131.167C288.429 135.913 283.93 141.082 279.938 146.644ZM339.341 104.722C338.591 111.17 338.62 118.335 339.452 126.202C366.531 120.168 395.068 117.789 424.347 118.939C419.56 111.646 415.201 104.67 411.295 98.0436C384.729 95.8615 360.453 98.0315 339.341 104.722ZM405.369 87.6225C401.813 81.1147 398.767 75.0078 396.26 69.3403C395.191 66.9244 394.214 64.5721 393.332 62.2881C375.545 61.9942 361.942 66.3226 352.799 74.9779C347.688 79.8161 343.944 86.0346 341.621 93.5967C360.977 88.2351 382.439 86.3337 405.369 87.6225ZM436.382 2.43328C436.386 2.43715 436.395 2.49241 436.394 2.58744C436.377 2.47693 436.377 2.42941 436.382 2.43328ZM433.567 5.44349C433.472 5.4456 433.418 5.43739 433.414 5.43276C433.41 5.42813 433.457 5.42707 433.567 5.44349ZM870.219 458.253C867.873 456.103 865.506 453.929 863.119 451.732C859.557 442.1 855.622 432.485 851.318 422.912C858.196 434.761 864.502 446.56 870.219 458.253Z" fill="url(#paint0_linear_8_190)" fill-opacity="0.4"/>
<path d="M101 955.5C308 1067.5 180 756 248.5 706.5C317 657 418.5 773 476.5 749.5C534.5 726 454.5 603.5 484.5 578C514.5 552.5 556.5 604 603 578C649.5 552 650.566 443.223 677.5 333M677.5 333C693.837 377.839 703.395 402.589 733 434.5M677.5 333C642.985 365.243 623.072 382.414 583.5 406.5" stroke="url(#paint1_linear_8_190)" stroke-width="22" stroke-linecap="round" stroke-linejoin="round"/>
<path d="M407 964C407 987.038 398.54 1009.27 383.226 1026.48C367.913 1043.7 346.812 1054.68 323.93 1057.36C301.049 1060.04 277.981 1054.22 259.106 1041.02C240.231 1027.81 226.863 1008.13 221.542 985.713C216.221 963.298 219.316 939.71 230.24 919.427C241.164 899.144 259.156 883.579 280.8 875.687C302.444 867.796 326.232 868.127 347.647 876.618C369.063 885.11 386.614 901.17 396.969 921.749L355.047 942.843C349.862 932.538 341.073 924.496 330.35 920.244C319.626 915.992 307.714 915.826 296.876 919.778C286.038 923.729 277.028 931.524 271.558 941.68C266.088 951.837 264.538 963.649 267.203 974.873C269.867 986.097 276.561 995.951 286.013 1002.57C295.464 1009.18 307.016 1012.09 318.473 1010.75C329.931 1009.41 340.497 1003.91 348.166 995.289C355.834 986.67 360.07 975.536 360.07 964H407Z" fill="#C4C4C4" fill-opacity="0.3"/>
<rect x="653" y="654" width="90" height="95" rx="2" fill="#C4C4C4" fill-opacity="0.3"/>
<circle cx="331" cy="579" r="55" fill="#C4C4C4" fill-opacity="0.3"/>
<path d="M315 100L340.929 170.071L411 196L340.929 221.929L315 292L289.071 221.929L219 196L289.071 170.071L315 100Z" fill="#C4C4C4" fill-opacity="0.3"/>
<defs>
<linearGradient id="paint0_linear_8_190" x1="505.385" y1="0.444458" x2="505.385" y2="980.372" gradientUnits="userSpaceOnUse">
<stop stop-color="white"/>
<stop offset="1" stop-color="#9E00FF"/>
</linearGradient>
<linearGradient id="paint1_linear_8_190" x1="685.5" y1="313.5" x2="190" y2="955.5" gradientUnits="userSpaceOnUse">
<stop stop-color="white"/>
<stop offset="1" stop-color="white" stop-opacity="0"/>
</linearGradient>
</defs>
</svg>
