<svg width="22" height="22" viewBox="0 0 22 22" fill="none" xmlns="http://www.w3.org/2000/svg">
<path d="M2.34299 0.873619C1.93565 0.466281 1.27522 0.466281 0.867884 0.873619C0.460546 1.28096 0.460546 1.94138 0.867885 2.34872L9.51783 10.9987L0.778404 19.7381C0.371066 20.1454 0.371066 20.8059 0.778404 21.2132C1.18574 21.6205 1.84617 21.6205 2.25351 21.2132L10.9929 12.4738L19.6755 21.1563C20.0828 21.5636 20.7432 21.5636 21.1506 21.1563C21.5579 20.749 21.5579 20.0885 21.1506 19.6812L12.468 10.9987L21.0611 2.40564C21.4684 1.9983 21.4684 1.33787 21.0611 0.930532C20.6537 0.523194 19.9933 0.523194 19.586 0.930533L10.9929 9.52357L2.34299 0.873619Z" fill="white" fill-opacity="0.8"/>
</svg>
